<mxfile host="app.diagrams.net" modified="2023-11-16T11:51:01.644Z" agent="Mozilla/5.0 (Windows NT 10.0; Win64; x64) AppleWebKit/537.36 (KHTML, like Gecko) Chrome/119.0.0.0 Safari/537.36" etag="855J4iYF1yxcV3WOxV_K" version="22.1.2" type="github">
  <diagram id="C5RBs43oDa-KdzZeNtuy" name="Page-1">
    <mxGraphModel dx="836" dy="478" grid="1" gridSize="10" guides="1" tooltips="1" connect="1" arrows="1" fold="1" page="1" pageScale="1" pageWidth="827" pageHeight="1169" math="0" shadow="0">
      <root>
        <mxCell id="WIyWlLk6GJQsqaUBKTNV-0" />
        <mxCell id="WIyWlLk6GJQsqaUBKTNV-1" parent="WIyWlLk6GJQsqaUBKTNV-0" />
        <mxCell id="zkfFHV4jXpPFQw0GAbJ--0" value="Account" style="swimlane;fontStyle=3;align=center;verticalAlign=top;childLayout=stackLayout;horizontal=1;startSize=26;horizontalStack=0;resizeParent=1;resizeLast=0;collapsible=1;marginBottom=0;rounded=0;shadow=0;strokeWidth=1;fillColor=#d5e8d4;strokeColor=#82b366;" parent="WIyWlLk6GJQsqaUBKTNV-1" vertex="1">
          <mxGeometry x="250" y="650" width="200" height="222" as="geometry">
            <mxRectangle x="230" y="140" width="160" height="26" as="alternateBounds" />
          </mxGeometry>
        </mxCell>
        <mxCell id="zkfFHV4jXpPFQw0GAbJ--2" value="- accountNo : String&#xa;- accountBalance : double&#xa;- product : Product" style="text;align=left;verticalAlign=top;spacingLeft=4;spacingRight=4;overflow=hidden;rotatable=0;points=[[0,0.5],[1,0.5]];portConstraint=eastwest;rounded=0;shadow=0;html=0;fontStyle=1" parent="zkfFHV4jXpPFQw0GAbJ--0" vertex="1">
          <mxGeometry y="26" width="200" height="54" as="geometry" />
        </mxCell>
        <mxCell id="zkfFHV4jXpPFQw0GAbJ--4" value="" style="line;html=1;strokeWidth=1;align=left;verticalAlign=middle;spacingTop=-1;spacingLeft=3;spacingRight=3;rotatable=0;labelPosition=right;points=[];portConstraint=eastwest;" parent="zkfFHV4jXpPFQw0GAbJ--0" vertex="1">
          <mxGeometry y="80" width="200" height="8" as="geometry" />
        </mxCell>
        <mxCell id="zkfFHV4jXpPFQw0GAbJ--5" value="+ Account ( accountNo : String, &#xa;accountBalance : double, product : &#xa;Product ) : Account&#xa;+ getAccountNo()&#xa;+ setAccountNo()&#xa;+ getAccountBalance()&#xa;+ setAccountBalance()&#xa;+ getProduct()&#xa;+ setProduct()" style="text;align=left;verticalAlign=top;spacingLeft=4;spacingRight=4;overflow=hidden;rotatable=0;points=[[0,0.5],[1,0.5]];portConstraint=eastwest;fontStyle=1" parent="zkfFHV4jXpPFQw0GAbJ--0" vertex="1">
          <mxGeometry y="88" width="200" height="134" as="geometry" />
        </mxCell>
        <mxCell id="L9gj6jOf77YL_sFpJSdi-0" value="CurrentAccount" style="swimlane;fontStyle=3;align=center;verticalAlign=top;childLayout=stackLayout;horizontal=1;startSize=26;horizontalStack=0;resizeParent=1;resizeLast=0;collapsible=1;marginBottom=0;rounded=0;shadow=0;strokeWidth=1;fillColor=#d5e8d4;strokeColor=#82b366;" vertex="1" parent="WIyWlLk6GJQsqaUBKTNV-1">
          <mxGeometry x="627" y="1000" width="193" height="100" as="geometry">
            <mxRectangle x="230" y="140" width="160" height="26" as="alternateBounds" />
          </mxGeometry>
        </mxCell>
        <mxCell id="L9gj6jOf77YL_sFpJSdi-4" value="+ CurrentAccount ( productCode : &#xa;String, productName : String, &#xa;serviceList : ArrayList )&#xa; : CurrentAccount" style="text;align=left;verticalAlign=top;spacingLeft=4;spacingRight=4;overflow=hidden;rotatable=0;points=[[0,0.5],[1,0.5]];portConstraint=eastwest;fontStyle=1" vertex="1" parent="L9gj6jOf77YL_sFpJSdi-0">
          <mxGeometry y="26" width="193" height="62" as="geometry" />
        </mxCell>
        <mxCell id="L9gj6jOf77YL_sFpJSdi-5" value="LoanAccount" style="swimlane;fontStyle=3;align=center;verticalAlign=top;childLayout=stackLayout;horizontal=1;startSize=26;horizontalStack=0;resizeParent=1;resizeLast=0;collapsible=1;marginBottom=0;rounded=0;shadow=0;strokeWidth=1;fillColor=#d5e8d4;strokeColor=#82b366;" vertex="1" parent="WIyWlLk6GJQsqaUBKTNV-1">
          <mxGeometry x="450" y="990" width="160" height="170" as="geometry">
            <mxRectangle x="230" y="140" width="160" height="26" as="alternateBounds" />
          </mxGeometry>
        </mxCell>
        <mxCell id="L9gj6jOf77YL_sFpJSdi-7" value="- chequeDeposit : double" style="text;align=left;verticalAlign=top;spacingLeft=4;spacingRight=4;overflow=hidden;rotatable=0;points=[[0,0.5],[1,0.5]];portConstraint=eastwest;rounded=0;shadow=0;html=0;fontStyle=1" vertex="1" parent="L9gj6jOf77YL_sFpJSdi-5">
          <mxGeometry y="26" width="160" height="26" as="geometry" />
        </mxCell>
        <mxCell id="L9gj6jOf77YL_sFpJSdi-8" value="" style="line;html=1;strokeWidth=1;align=left;verticalAlign=middle;spacingTop=-1;spacingLeft=3;spacingRight=3;rotatable=0;labelPosition=right;points=[];portConstraint=eastwest;" vertex="1" parent="L9gj6jOf77YL_sFpJSdi-5">
          <mxGeometry y="52" width="160" height="8" as="geometry" />
        </mxCell>
        <mxCell id="L9gj6jOf77YL_sFpJSdi-9" value="+ LoanAccount ( productCode&#xa; : String, productName : &#xa;String, serviceList : ArrayList&#xa;, chequeDeposit : double ) &#xa;: LoanAccount&#xa;+ getChequeDeposit()&#xa;+ setChequeDeposit()" style="text;align=left;verticalAlign=top;spacingLeft=4;spacingRight=4;overflow=hidden;rotatable=0;points=[[0,0.5],[1,0.5]];portConstraint=eastwest;fontStyle=1" vertex="1" parent="L9gj6jOf77YL_sFpJSdi-5">
          <mxGeometry y="60" width="160" height="110" as="geometry" />
        </mxCell>
        <mxCell id="L9gj6jOf77YL_sFpJSdi-10" value="SavingsMaxAccount" style="swimlane;fontStyle=3;align=center;verticalAlign=top;childLayout=stackLayout;horizontal=1;startSize=26;horizontalStack=0;resizeParent=1;resizeLast=0;collapsible=1;marginBottom=0;rounded=0;shadow=0;strokeWidth=1;fillColor=#d5e8d4;strokeColor=#82b366;" vertex="1" parent="WIyWlLk6GJQsqaUBKTNV-1">
          <mxGeometry x="180" y="980" width="220" height="170" as="geometry">
            <mxRectangle x="230" y="140" width="160" height="26" as="alternateBounds" />
          </mxGeometry>
        </mxCell>
        <mxCell id="L9gj6jOf77YL_sFpJSdi-11" value="- minBalance: double = 1000" style="text;align=left;verticalAlign=top;spacingLeft=4;spacingRight=4;overflow=hidden;rotatable=0;points=[[0,0.5],[1,0.5]];portConstraint=eastwest;rounded=0;shadow=0;html=0;fontStyle=1" vertex="1" parent="L9gj6jOf77YL_sFpJSdi-10">
          <mxGeometry y="26" width="220" height="26" as="geometry" />
        </mxCell>
        <mxCell id="L9gj6jOf77YL_sFpJSdi-13" value="" style="line;html=1;strokeWidth=1;align=left;verticalAlign=middle;spacingTop=-1;spacingLeft=3;spacingRight=3;rotatable=0;labelPosition=right;points=[];portConstraint=eastwest;" vertex="1" parent="L9gj6jOf77YL_sFpJSdi-10">
          <mxGeometry y="52" width="220" height="8" as="geometry" />
        </mxCell>
        <mxCell id="L9gj6jOf77YL_sFpJSdi-14" value="+ SavingsMaxAccount ( productCode&#xa; : String, productName : &#xa;String, serviceList : ArrayList&#xa;, minBalance : double ) &#xa;: SavingsMaxAccount&#xa;+ getMinBalance()&#xa;+ setMinBalance()" style="text;align=left;verticalAlign=top;spacingLeft=4;spacingRight=4;overflow=hidden;rotatable=0;points=[[0,0.5],[1,0.5]];portConstraint=eastwest;fontStyle=1" vertex="1" parent="L9gj6jOf77YL_sFpJSdi-10">
          <mxGeometry y="60" width="220" height="110" as="geometry" />
        </mxCell>
        <mxCell id="L9gj6jOf77YL_sFpJSdi-15" value="Product" style="swimlane;fontStyle=3;align=center;verticalAlign=top;childLayout=stackLayout;horizontal=1;startSize=26;horizontalStack=0;resizeParent=1;resizeLast=0;collapsible=1;marginBottom=0;rounded=0;shadow=0;strokeWidth=1;fillColor=#d5e8d4;strokeColor=#82b366;" vertex="1" parent="WIyWlLk6GJQsqaUBKTNV-1">
          <mxGeometry x="470" y="650" width="180" height="210" as="geometry">
            <mxRectangle x="230" y="140" width="160" height="26" as="alternateBounds" />
          </mxGeometry>
        </mxCell>
        <mxCell id="L9gj6jOf77YL_sFpJSdi-16" value="- productCode : String&#xa;- productName : String&#xa;- serviceList : ArrayList" style="text;align=left;verticalAlign=top;spacingLeft=4;spacingRight=4;overflow=hidden;rotatable=0;points=[[0,0.5],[1,0.5]];portConstraint=eastwest;rounded=0;shadow=0;html=0;fontStyle=1" vertex="1" parent="L9gj6jOf77YL_sFpJSdi-15">
          <mxGeometry y="26" width="180" height="54" as="geometry" />
        </mxCell>
        <mxCell id="L9gj6jOf77YL_sFpJSdi-18" value="" style="line;html=1;strokeWidth=1;align=left;verticalAlign=middle;spacingTop=-1;spacingLeft=3;spacingRight=3;rotatable=0;labelPosition=right;points=[];portConstraint=eastwest;" vertex="1" parent="L9gj6jOf77YL_sFpJSdi-15">
          <mxGeometry y="80" width="180" height="8" as="geometry" />
        </mxCell>
        <mxCell id="L9gj6jOf77YL_sFpJSdi-19" value="+ Product ( productCode : &#xa;String, productName : String, &#xa;serviceList : ArrayList ) : &#xa;Product&#xa;+ getProductCode()&#xa;+ setProductCode()&#xa;+ getProductName()&#xa;+ setProductName()" style="text;align=left;verticalAlign=top;spacingLeft=4;spacingRight=4;overflow=hidden;rotatable=0;points=[[0,0.5],[1,0.5]];portConstraint=eastwest;fontStyle=1" vertex="1" parent="L9gj6jOf77YL_sFpJSdi-15">
          <mxGeometry y="88" width="180" height="122" as="geometry" />
        </mxCell>
        <mxCell id="L9gj6jOf77YL_sFpJSdi-20" value="Services" style="swimlane;fontStyle=3;align=center;verticalAlign=top;childLayout=stackLayout;horizontal=1;startSize=26;horizontalStack=0;resizeParent=1;resizeLast=0;collapsible=1;marginBottom=0;rounded=0;shadow=0;strokeWidth=1;fillColor=#d5e8d4;strokeColor=#82b366;" vertex="1" parent="WIyWlLk6GJQsqaUBKTNV-1">
          <mxGeometry x="660" y="650" width="160" height="240" as="geometry">
            <mxRectangle x="230" y="140" width="160" height="26" as="alternateBounds" />
          </mxGeometry>
        </mxCell>
        <mxCell id="L9gj6jOf77YL_sFpJSdi-21" value="- serviceCode : String&#xa;- serviceName : String&#xa;- serviceRate : double" style="text;align=left;verticalAlign=top;spacingLeft=4;spacingRight=4;overflow=hidden;rotatable=0;points=[[0,0.5],[1,0.5]];portConstraint=eastwest;rounded=0;shadow=0;html=0;fontStyle=1" vertex="1" parent="L9gj6jOf77YL_sFpJSdi-20">
          <mxGeometry y="26" width="160" height="50" as="geometry" />
        </mxCell>
        <mxCell id="L9gj6jOf77YL_sFpJSdi-23" value="" style="line;html=1;strokeWidth=1;align=left;verticalAlign=middle;spacingTop=-1;spacingLeft=3;spacingRight=3;rotatable=0;labelPosition=right;points=[];portConstraint=eastwest;" vertex="1" parent="L9gj6jOf77YL_sFpJSdi-20">
          <mxGeometry y="76" width="160" height="8" as="geometry" />
        </mxCell>
        <mxCell id="L9gj6jOf77YL_sFpJSdi-24" value="+ Services ( serviceCode : &#xa;String, serviceName : &#xa;String, serviceRate : &#xa;double ) : Services&#xa;+ getServiceName()&#xa;+ setServiceName()&#xa;+ getServiceRate()&#xa;+ setServiceRate()&#xa;+ getServiceCode()&#xa;+ setServiceCode()" style="text;align=left;verticalAlign=top;spacingLeft=4;spacingRight=4;overflow=hidden;rotatable=0;points=[[0,0.5],[1,0.5]];portConstraint=eastwest;fontStyle=1" vertex="1" parent="L9gj6jOf77YL_sFpJSdi-20">
          <mxGeometry y="84" width="160" height="152" as="geometry" />
        </mxCell>
        <mxCell id="L9gj6jOf77YL_sFpJSdi-25" value="Customer" style="swimlane;fontStyle=3;align=center;verticalAlign=top;childLayout=stackLayout;horizontal=1;startSize=26;horizontalStack=0;resizeParent=1;resizeLast=0;collapsible=1;marginBottom=0;rounded=0;shadow=0;strokeWidth=1;fillColor=#d5e8d4;strokeColor=#82b366;" vertex="1" parent="WIyWlLk6GJQsqaUBKTNV-1">
          <mxGeometry x="20" y="650" width="200" height="240" as="geometry">
            <mxRectangle x="230" y="140" width="160" height="26" as="alternateBounds" />
          </mxGeometry>
        </mxCell>
        <mxCell id="L9gj6jOf77YL_sFpJSdi-26" value="- customerCode : String&#xa;- customerName : String&#xa;- accountList : ArrayList" style="text;align=left;verticalAlign=top;spacingLeft=4;spacingRight=4;overflow=hidden;rotatable=0;points=[[0,0.5],[1,0.5]];portConstraint=eastwest;rounded=0;shadow=0;html=0;fontStyle=1" vertex="1" parent="L9gj6jOf77YL_sFpJSdi-25">
          <mxGeometry y="26" width="200" height="54" as="geometry" />
        </mxCell>
        <mxCell id="L9gj6jOf77YL_sFpJSdi-28" value="" style="line;html=1;strokeWidth=1;align=left;verticalAlign=middle;spacingTop=-1;spacingLeft=3;spacingRight=3;rotatable=0;labelPosition=right;points=[];portConstraint=eastwest;" vertex="1" parent="L9gj6jOf77YL_sFpJSdi-25">
          <mxGeometry y="80" width="200" height="8" as="geometry" />
        </mxCell>
        <mxCell id="L9gj6jOf77YL_sFpJSdi-29" value="+ Customer( customerCode&#xa;: String, customerName : String,&#xa;accountList : ArrayList) : Customer&#xa;+ getCustomerCode()&#xa;+ setCustomerCode()&#xa;+ getCustomerName()&#xa;+ setCustomerName()&#xa;+ getAccountList()&#xa;+ setAccountList()" style="text;align=left;verticalAlign=top;spacingLeft=4;spacingRight=4;overflow=hidden;rotatable=0;points=[[0,0.5],[1,0.5]];portConstraint=eastwest;fontStyle=1" vertex="1" parent="L9gj6jOf77YL_sFpJSdi-25">
          <mxGeometry y="88" width="200" height="152" as="geometry" />
        </mxCell>
        <mxCell id="L9gj6jOf77YL_sFpJSdi-31" value="CustomerAccountConfiguration" style="swimlane;fontStyle=3;align=center;verticalAlign=top;childLayout=stackLayout;horizontal=1;startSize=26;horizontalStack=0;resizeParent=1;resizeLast=0;collapsible=1;marginBottom=0;rounded=0;shadow=0;strokeWidth=1;fillColor=#d5e8d4;strokeColor=#82b366;" vertex="1" parent="WIyWlLk6GJQsqaUBKTNV-1">
          <mxGeometry x="150" y="290" width="250" height="280" as="geometry">
            <mxRectangle x="230" y="140" width="160" height="26" as="alternateBounds" />
          </mxGeometry>
        </mxCell>
        <mxCell id="L9gj6jOf77YL_sFpJSdi-32" value="+ accountList : ArrayList&#xa;+ customer : Customer&#xa;+accountNumber : String&#xa;+selectedProduct : Product&#xa;+ savingsAccount : SavingsMaxProduct&#xa;+ accountBalance : double&#xa;+ transactionNo : double&#xa;+ customerCode : String&#xa;+ loanAccount : LoanAccount" style="text;align=left;verticalAlign=top;spacingLeft=4;spacingRight=4;overflow=hidden;rotatable=0;points=[[0,0.5],[1,0.5]];portConstraint=eastwest;rounded=0;shadow=0;html=0;fontStyle=1" vertex="1" parent="L9gj6jOf77YL_sFpJSdi-31">
          <mxGeometry y="26" width="250" height="134" as="geometry" />
        </mxCell>
        <mxCell id="L9gj6jOf77YL_sFpJSdi-33" value="" style="line;html=1;strokeWidth=1;align=left;verticalAlign=middle;spacingTop=-1;spacingLeft=3;spacingRight=3;rotatable=0;labelPosition=right;points=[];portConstraint=eastwest;" vertex="1" parent="L9gj6jOf77YL_sFpJSdi-31">
          <mxGeometry y="160" width="250" height="8" as="geometry" />
        </mxCell>
        <mxCell id="L9gj6jOf77YL_sFpJSdi-34" value="+ createCustomer(productList)&#xa;+ displayCustomer(customer)&#xa;+ createAccount(productList)&#xa;+ transactCustomer(customer)&#xa;+ manageAccount(customer)&#xa;+ depositMoney(account)&#xa;+ withdrawMoney(account)" style="text;align=left;verticalAlign=top;spacingLeft=4;spacingRight=4;overflow=hidden;rotatable=0;points=[[0,0.5],[1,0.5]];portConstraint=eastwest;fontStyle=1" vertex="1" parent="L9gj6jOf77YL_sFpJSdi-31">
          <mxGeometry y="168" width="250" height="112" as="geometry" />
        </mxCell>
        <mxCell id="L9gj6jOf77YL_sFpJSdi-37" value="ProductConfiguration" style="swimlane;fontStyle=3;align=center;verticalAlign=top;childLayout=stackLayout;horizontal=1;startSize=26;horizontalStack=0;resizeParent=1;resizeLast=0;collapsible=1;marginBottom=0;rounded=0;shadow=0;strokeWidth=1;fillColor=#d5e8d4;strokeColor=#82b366;" vertex="1" parent="WIyWlLk6GJQsqaUBKTNV-1">
          <mxGeometry x="460" y="290" width="250" height="200" as="geometry">
            <mxRectangle x="230" y="140" width="160" height="26" as="alternateBounds" />
          </mxGeometry>
        </mxCell>
        <mxCell id="L9gj6jOf77YL_sFpJSdi-38" value="+ productList : ArrayList&#xa;+ addedServicesList : ArrayList&#xa;+ serviceCode : String&#xa;+ serviceName : String&#xa;+ serviceRate : double" style="text;align=left;verticalAlign=top;spacingLeft=4;spacingRight=4;overflow=hidden;rotatable=0;points=[[0,0.5],[1,0.5]];portConstraint=eastwest;rounded=0;shadow=0;html=0;fontStyle=1" vertex="1" parent="L9gj6jOf77YL_sFpJSdi-37">
          <mxGeometry y="26" width="250" height="84" as="geometry" />
        </mxCell>
        <mxCell id="L9gj6jOf77YL_sFpJSdi-39" value="" style="line;html=1;strokeWidth=1;align=left;verticalAlign=middle;spacingTop=-1;spacingLeft=3;spacingRight=3;rotatable=0;labelPosition=right;points=[];portConstraint=eastwest;" vertex="1" parent="L9gj6jOf77YL_sFpJSdi-37">
          <mxGeometry y="110" width="250" height="8" as="geometry" />
        </mxCell>
        <mxCell id="L9gj6jOf77YL_sFpJSdi-40" value="+ createProduct(servicesList)&#xa;+ createSavingsMaxAccount(servicesList)&#xa;+ createCurrentAcccount(servicesList)&#xa;+ createLoanAccount(servicesList)&#xa;+ createServices()" style="text;align=left;verticalAlign=top;spacingLeft=4;spacingRight=4;overflow=hidden;rotatable=0;points=[[0,0.5],[1,0.5]];portConstraint=eastwest;fontStyle=1" vertex="1" parent="L9gj6jOf77YL_sFpJSdi-37">
          <mxGeometry y="118" width="250" height="82" as="geometry" />
        </mxCell>
        <mxCell id="L9gj6jOf77YL_sFpJSdi-41" value="CustomerUtility" style="swimlane;fontStyle=3;align=center;verticalAlign=top;childLayout=stackLayout;horizontal=1;startSize=26;horizontalStack=0;resizeParent=1;resizeLast=0;collapsible=1;marginBottom=0;rounded=0;shadow=0;strokeWidth=1;fillColor=#d5e8d4;strokeColor=#82b366;" vertex="1" parent="WIyWlLk6GJQsqaUBKTNV-1">
          <mxGeometry x="300" y="60" width="250" height="130" as="geometry">
            <mxRectangle x="230" y="140" width="160" height="26" as="alternateBounds" />
          </mxGeometry>
        </mxCell>
        <mxCell id="L9gj6jOf77YL_sFpJSdi-42" value="+ productList : ArrayList&#xa;+ servicesList : ArrayList&#xa;+ customer : Customer" style="text;align=left;verticalAlign=top;spacingLeft=4;spacingRight=4;overflow=hidden;rotatable=0;points=[[0,0.5],[1,0.5]];portConstraint=eastwest;rounded=0;shadow=0;html=0;fontSize=13;fontStyle=1" vertex="1" parent="L9gj6jOf77YL_sFpJSdi-41">
          <mxGeometry y="26" width="250" height="54" as="geometry" />
        </mxCell>
        <mxCell id="L9gj6jOf77YL_sFpJSdi-43" value="" style="line;html=1;strokeWidth=1;align=left;verticalAlign=middle;spacingTop=-1;spacingLeft=3;spacingRight=3;rotatable=0;labelPosition=right;points=[];portConstraint=eastwest;" vertex="1" parent="L9gj6jOf77YL_sFpJSdi-41">
          <mxGeometry y="80" width="250" height="8" as="geometry" />
        </mxCell>
        <mxCell id="L9gj6jOf77YL_sFpJSdi-49" value="" style="endArrow=classic;html=1;rounded=0;exitX=0.608;exitY=-0.028;exitDx=0;exitDy=0;exitPerimeter=0;entryX=0.353;entryY=1.011;entryDx=0;entryDy=0;entryPerimeter=0;" edge="1" parent="WIyWlLk6GJQsqaUBKTNV-1" source="L9gj6jOf77YL_sFpJSdi-10" target="L9gj6jOf77YL_sFpJSdi-19">
          <mxGeometry width="50" height="50" relative="1" as="geometry">
            <mxPoint x="220" y="830" as="sourcePoint" />
            <mxPoint x="270" y="780" as="targetPoint" />
          </mxGeometry>
        </mxCell>
        <mxCell id="L9gj6jOf77YL_sFpJSdi-50" value="" style="endArrow=classic;html=1;rounded=0;exitX=0.5;exitY=0;exitDx=0;exitDy=0;entryX=0.509;entryY=1.023;entryDx=0;entryDy=0;entryPerimeter=0;" edge="1" parent="WIyWlLk6GJQsqaUBKTNV-1" source="L9gj6jOf77YL_sFpJSdi-5" target="L9gj6jOf77YL_sFpJSdi-19">
          <mxGeometry width="50" height="50" relative="1" as="geometry">
            <mxPoint x="164" y="995" as="sourcePoint" />
            <mxPoint x="544" y="871" as="targetPoint" />
          </mxGeometry>
        </mxCell>
        <mxCell id="L9gj6jOf77YL_sFpJSdi-51" value="" style="endArrow=classic;html=1;rounded=0;exitX=0.5;exitY=0;exitDx=0;exitDy=0;" edge="1" parent="WIyWlLk6GJQsqaUBKTNV-1" source="L9gj6jOf77YL_sFpJSdi-0" target="L9gj6jOf77YL_sFpJSdi-19">
          <mxGeometry width="50" height="50" relative="1" as="geometry">
            <mxPoint x="174" y="1005" as="sourcePoint" />
            <mxPoint x="554" y="881" as="targetPoint" />
          </mxGeometry>
        </mxCell>
        <mxCell id="L9gj6jOf77YL_sFpJSdi-53" value="" style="endArrow=none;html=1;rounded=0;exitX=1;exitY=0.5;exitDx=0;exitDy=0;" edge="1" parent="WIyWlLk6GJQsqaUBKTNV-1" source="L9gj6jOf77YL_sFpJSdi-29" target="zkfFHV4jXpPFQw0GAbJ--5">
          <mxGeometry width="50" height="50" relative="1" as="geometry">
            <mxPoint x="350" y="930" as="sourcePoint" />
            <mxPoint x="400" y="880" as="targetPoint" />
          </mxGeometry>
        </mxCell>
        <mxCell id="L9gj6jOf77YL_sFpJSdi-54" value="" style="endArrow=none;html=1;rounded=0;exitX=1;exitY=0.5;exitDx=0;exitDy=0;entryX=0;entryY=0.5;entryDx=0;entryDy=0;" edge="1" parent="WIyWlLk6GJQsqaUBKTNV-1" source="zkfFHV4jXpPFQw0GAbJ--5" target="L9gj6jOf77YL_sFpJSdi-19">
          <mxGeometry width="50" height="50" relative="1" as="geometry">
            <mxPoint x="230" y="824" as="sourcePoint" />
            <mxPoint x="260" y="822" as="targetPoint" />
          </mxGeometry>
        </mxCell>
        <mxCell id="L9gj6jOf77YL_sFpJSdi-55" value="" style="endArrow=none;html=1;rounded=0;exitX=1;exitY=0.5;exitDx=0;exitDy=0;entryX=0.008;entryY=0.419;entryDx=0;entryDy=0;entryPerimeter=0;" edge="1" parent="WIyWlLk6GJQsqaUBKTNV-1" source="L9gj6jOf77YL_sFpJSdi-19" target="L9gj6jOf77YL_sFpJSdi-24">
          <mxGeometry width="50" height="50" relative="1" as="geometry">
            <mxPoint x="240" y="834" as="sourcePoint" />
            <mxPoint x="270" y="832" as="targetPoint" />
          </mxGeometry>
        </mxCell>
        <mxCell id="L9gj6jOf77YL_sFpJSdi-56" value="" style="endArrow=none;html=1;rounded=0;exitX=0.5;exitY=0;exitDx=0;exitDy=0;entryX=0.574;entryY=-0.02;entryDx=0;entryDy=0;entryPerimeter=0;" edge="1" parent="WIyWlLk6GJQsqaUBKTNV-1" source="L9gj6jOf77YL_sFpJSdi-25" target="zkfFHV4jXpPFQw0GAbJ--0">
          <mxGeometry width="50" height="50" relative="1" as="geometry">
            <mxPoint x="370" y="600" as="sourcePoint" />
            <mxPoint x="420" y="550" as="targetPoint" />
            <Array as="points">
              <mxPoint x="250" y="570" />
            </Array>
          </mxGeometry>
        </mxCell>
        <mxCell id="L9gj6jOf77YL_sFpJSdi-57" value="" style="endArrow=none;html=1;rounded=0;exitX=0.43;exitY=-0.012;exitDx=0;exitDy=0;exitPerimeter=0;entryX=0.5;entryY=0;entryDx=0;entryDy=0;" edge="1" parent="WIyWlLk6GJQsqaUBKTNV-1" source="L9gj6jOf77YL_sFpJSdi-20" target="L9gj6jOf77YL_sFpJSdi-15">
          <mxGeometry width="50" height="50" relative="1" as="geometry">
            <mxPoint x="370" y="600" as="sourcePoint" />
            <mxPoint x="420" y="550" as="targetPoint" />
            <Array as="points">
              <mxPoint x="580" y="490" />
            </Array>
          </mxGeometry>
        </mxCell>
        <mxCell id="L9gj6jOf77YL_sFpJSdi-58" value="" style="endArrow=none;html=1;rounded=0;entryX=0.5;entryY=0;entryDx=0;entryDy=0;exitX=0.5;exitY=0;exitDx=0;exitDy=0;" edge="1" parent="WIyWlLk6GJQsqaUBKTNV-1" source="L9gj6jOf77YL_sFpJSdi-31" target="L9gj6jOf77YL_sFpJSdi-37">
          <mxGeometry width="50" height="50" relative="1" as="geometry">
            <mxPoint x="370" y="320" as="sourcePoint" />
            <mxPoint x="420" y="270" as="targetPoint" />
            <Array as="points">
              <mxPoint x="420" y="190" />
            </Array>
          </mxGeometry>
        </mxCell>
      </root>
    </mxGraphModel>
  </diagram>
</mxfile>
